<svg xmlns="http://www.w3.org/2000/svg" xmlns:xlink="http://www.w3.org/1999/xlink" width="500" zoomAndPan="magnify" viewBox="0 0 375 374.999991" height="500" preserveAspectRatio="xMidYMid meet" version="1.0"><defs><clipPath id="6fd7804ded"><path d="M 132 51 L 243 51 L 243 326.53125 L 132 326.53125 Z M 132 51 " clip-rule="nonzero"/></clipPath></defs><g clip-path="url(#6fd7804ded)"><path fill="#f9003d" d="M 226.414062 52.238281 C 215.03125 48.960938 203.097656 55.582031 199.800781 67.011719 L 133.644531 298.5625 C 130.363281 309.941406 136.988281 321.882812 148.40625 325.171875 C 150.378906 325.742188 152.367188 326.011719 154.328125 326.011719 C 163.667969 326.011719 172.296875 319.847656 175.019531 310.398438 L 241.175781 78.847656 C 244.460938 67.464844 237.835938 55.53125 226.414062 52.238281 Z M 226.414062 52.238281 " fill-opacity="1" fill-rule="nonzero"/></g><path fill="#f9003d" d="M 366.484375 173.484375 L 308.59375 115.59375 C 300.222656 107.222656 286.609375 107.203125 278.214844 115.542969 C 278.207031 115.550781 278.195312 115.558594 278.191406 115.570312 C 278.183594 115.578125 278.171875 115.589844 278.164062 115.59375 C 269.824219 123.988281 269.84375 137.601562 278.214844 145.972656 L 320.863281 188.671875 L 278.164062 231.375 C 269.773438 239.765625 269.773438 253.417969 278.164062 261.808594 C 282.222656 265.867188 287.628906 268.105469 293.378906 268.105469 C 299.128906 268.105469 304.535156 265.867188 308.59375 261.808594 L 366.484375 203.917969 C 374.871094 195.527344 374.871094 181.875 366.484375 173.484375 Z M 366.484375 173.484375 " fill-opacity="1" fill-rule="nonzero"/><path fill="#f9003d" d="M 102.953125 130.8125 C 102.953125 125.0625 100.714844 119.65625 96.652344 115.59375 C 88.261719 107.207031 74.609375 107.203125 66.222656 115.59375 L 8.332031 173.484375 C -0.0585938 181.875 -0.0585938 195.527344 8.332031 203.917969 L 66.222656 261.808594 C 70.28125 265.867188 75.6875 268.105469 81.4375 268.105469 C 87.1875 268.105469 92.589844 265.867188 96.652344 261.808594 C 100.714844 257.746094 102.953125 252.34375 102.953125 246.589844 C 102.953125 240.839844 100.714844 235.4375 96.652344 231.375 L 53.957031 188.726562 L 96.65625 146.027344 C 100.714844 141.964844 102.953125 136.5625 102.953125 130.8125 Z M 102.953125 130.8125 " fill-opacity="1" fill-rule="nonzero"/></svg>